<?xml version="1.0" encoding="UTF-8" standalone="no"?>
<!-- Created with Inkscape (http://www.inkscape.org/) -->

<svg
   width="63.728046mm"
   height="33.534916mm"
   viewBox="0 0 63.728047 33.534916"
   version="1.1"
   id="svg1"
   inkscape:version="1.4.3 (1:1.4.3+202512261034+0d15f75042)"
   sodipodi:docname="zdouc_groupv1.svg"
   inkscape:export-filename="zdouc_groupv1.png"
   inkscape:export-xdpi="300"
   inkscape:export-ydpi="300"
   xmlns:inkscape="http://www.inkscape.org/namespaces/inkscape"
   xmlns:sodipodi="http://sodipodi.sourceforge.net/DTD/sodipodi-0.dtd"
   xmlns="http://www.w3.org/2000/svg"
   xmlns:svg="http://www.w3.org/2000/svg">
  <sodipodi:namedview
     id="namedview1"
     pagecolor="#505050"
     bordercolor="#ffffff"
     borderopacity="1"
     inkscape:showpageshadow="0"
     inkscape:pageopacity="0"
     inkscape:pagecheckerboard="1"
     inkscape:deskcolor="#505050"
     inkscape:document-units="mm"
     inkscape:zoom="2.166953"
     inkscape:cx="131.52108"
     inkscape:cy="43.378883"
     inkscape:window-width="1920"
     inkscape:window-height="1043"
     inkscape:window-x="0"
     inkscape:window-y="1080"
     inkscape:window-maximized="1"
     inkscape:current-layer="layer1"
     showguides="true" />
  <defs
     id="defs1" />
  <g
     inkscape:label="Layer 1"
     inkscape:groupmode="layer"
     id="layer1"
     transform="translate(-3.5468823,-2.7904796)">
    <path
       id="path12"
       style="font-size:2.82223px;line-height:1;font-family:FontAwesome;-inkscape-font-specification:FontAwesome;letter-spacing:-0.0668324px;word-spacing:0px;white-space:pre;fill:#333333;stroke:#f2f2f2;stroke-width:0.310248;stroke-linecap:square;stroke-dasharray:none;paint-order:fill markers stroke"
       d="m 56.406702,10.022818 c -1.448721,0 -2.59079,0.434111 -3.425743,1.302239 -0.829417,0.868123 -1.24412,2.059366 -1.24412,3.574442 0,1.492954 0.411815,2.679223 1.235704,3.55841 0.545203,0.581793 1.216656,0.97117 2.01368,1.167966 -0.177645,0.0591 -0.345607,0.132144 -0.503822,0.219244 -0.486581,0.265415 -0.89053,0.674738 -1.211253,1.227688 v -1.410056 h -1.534309 v 12.822781 h 1.534309 v -4.926783 c 0.320711,0.552966 0.724659,0.964777 1.211253,1.235703 0.49212,0.26543 1.078242,0.398007 1.758365,0.398007 1.128008,0 2.042917,-0.447748 2.745162,-1.343521 0.70777,-0.895776 1.061751,-2.073382 1.061751,-3.53316 0,-1.459778 -0.353981,-2.637785 -1.061751,-3.53356 -0.410021,-0.52302 -0.892562,-0.89341 -1.447734,-1.111051 0.0742,-0.01339 0.147812,-0.02775 0.220447,-0.04369 0.458947,-0.09951 0.901321,-0.249046 1.327089,-0.448109 v -1.410055 c -0.431298,0.237743 -0.865412,0.417432 -1.302239,0.539091 -0.431301,0.116118 -0.8683,0.174353 -1.310655,0.174353 -0.989777,0 -1.758457,-0.312268 -2.305872,-0.937099 -0.547417,-0.630359 -0.820864,-1.512623 -0.820864,-2.646162 0,-1.133542 0.273447,-2.012513 0.820864,-2.637342 0.547415,-0.630357 1.316095,-0.945517 2.305872,-0.945517 0.442355,0 0.879354,0.06071 1.310655,0.18237 0.436827,0.116083 0.870941,0.292891 1.302239,0.530676 v -1.426489 c -0.420239,-0.193526 -0.854355,-0.33726 -1.302239,-0.431274 -0.447889,-0.09955 -0.906788,-0.149102 -1.376789,-0.149102 z m -0.539494,10.693266 c 0.807302,0 1.440501,0.32053 1.899449,0.961949 0.464474,0.63589 0.697012,1.515266 0.697012,2.637745 0,1.122484 -0.232538,2.004347 -0.697012,2.645761 -0.458948,0.635889 -1.092147,0.953933 -1.899449,0.953933 -0.8073,0 -1.442987,-0.318044 -1.907465,-0.953933 -0.458944,-0.641414 -0.688595,-1.523277 -0.688595,-2.645761 0,-1.122479 0.229651,-2.001855 0.688595,-2.637745 0.464478,-0.641419 1.100165,-0.961949 1.907465,-0.961949 z" />
    <path
       style="font-size:2.82223px;line-height:1;font-family:FontAwesome;-inkscape-font-specification:FontAwesome;letter-spacing:-0.0668324px;word-spacing:0px;white-space:pre;fill:#333333;stroke:#f2f2f2;stroke-width:0.310248;stroke-linecap:square;stroke-dasharray:none;paint-order:fill markers stroke"
       d="M 46.054249,10.02267 Z"
       id="path11" />
    <path
       id="path10"
       style="font-size:2.82223px;line-height:1;font-family:FontAwesome;-inkscape-font-specification:FontAwesome;letter-spacing:-0.0668324px;word-spacing:0px;white-space:pre;fill:#333333;stroke:#f2f2f2;stroke-width:0.310248;stroke-linecap:square;stroke-dasharray:none;paint-order:fill markers stroke"
       d="m 41.812303,10.246471 v 5.623796 c 6.1e-5,1.277092 0.27639,2.24763 0.829279,2.911097 0.552945,0.663536 1.362937,0.995217 2.430125,0.995217 0.646947,0 1.214052,-0.135497 1.700645,-0.406424 0.492115,-0.276477 0.923342,-0.69655 1.29382,-1.260554 v 1.258951 0.167539 5.099533 c 0,0.906832 -0.240797,1.622652 -0.721861,2.147953 -0.475532,0.525297 -1.125256,0.787995 -1.94915,0.787995 -0.685644,0 -1.199894,-0.2185 -1.542725,-0.655326 -0.342833,-0.442361 -0.514243,-1.102834 -0.514243,-1.982017 v -5.565677 h -1.52589 v 5.623795 c 6.1e-5,1.277099 0.27639,2.247636 0.829279,2.911099 0.552945,0.663535 1.362937,0.995215 2.430125,0.995215 0.646947,0 1.214054,-0.135495 1.700645,-0.406423 0.492118,-0.276472 0.923342,-0.696545 1.29382,-1.260555 v 1.426491 h 1.525892 v -9.122083 -0.167539 -9.122083 h -1.525892 v 5.267072 c 0,0.906833 -0.240797,1.622653 -0.721861,2.147952 -0.475532,0.525299 -1.125261,0.787997 -1.94915,0.787997 -0.685649,0 -1.199894,-0.218501 -1.542725,-0.655328 -0.342833,-0.44236 -0.514243,-1.10283 -0.514243,-1.982017 v -5.565676 z" />
    <path
       id="path9"
       style="font-size:2.82223px;line-height:1;font-family:FontAwesome;-inkscape-font-specification:FontAwesome;letter-spacing:-0.0668324px;word-spacing:0px;white-space:pre;fill:#333333;stroke:#f2f2f2;stroke-width:0.310248;stroke-linecap:square;stroke-dasharray:none;paint-order:fill markers stroke"
       d="m 35.617466,10.022818 c -1.332601,0 -2.377614,0.431222 -3.135153,1.293822 -0.752004,0.862593 -1.128284,2.056725 -1.128284,3.582859 0,1.5206 0.37628,2.715132 1.128284,3.58326 0.483761,0.550852 1.084582,0.925999 1.802853,1.12508 -0.718269,0.19908 -1.319093,0.573829 -1.802853,1.12468 -0.752007,0.862593 -1.128284,2.057125 -1.128284,3.583259 0,1.520604 0.376277,2.714736 1.128284,3.582859 0.757539,0.862599 1.802552,1.293822 3.135153,1.293822 1.327072,0 2.369198,-0.431223 3.126735,-1.293822 0.757539,-0.868123 1.136303,-2.062255 1.136303,-3.582859 0,-1.526134 -0.378764,-2.720666 -1.136303,-3.583259 -0.483759,-0.550852 -1.083627,-0.9256 -1.799646,-1.12468 0.716015,-0.199081 1.315888,-0.57423 1.799646,-1.12508 0.757539,-0.868128 1.136303,-2.06266 1.136303,-3.58326 0,-1.526134 -0.378764,-2.720266 -1.136303,-3.582859 -0.757537,-0.8626 -1.799663,-1.293822 -3.126735,-1.293822 z m 0,1.293822 c 0.812832,0 1.45678,0.323417 1.932316,0.970365 0.475536,0.641415 0.713445,1.512129 0.713445,2.612494 0,1.105892 -0.237909,1.979893 -0.713445,2.621312 -0.475536,0.641419 -1.119484,0.961948 -1.932316,0.961948 -0.823889,0 -1.473613,-0.318044 -1.949149,-0.953934 -0.470002,-0.641417 -0.705029,-1.517905 -0.705029,-2.629326 0,-1.111425 0.237513,-1.985026 0.713045,-2.620911 0.475536,-0.641418 1.122773,-0.961948 1.941133,-0.961948 z m 0,9.415879 c 0.812827,0 1.45678,0.323417 1.932316,0.970364 0.475531,0.64142 0.713445,1.512533 0.713445,2.612895 0,1.105892 -0.237914,1.979492 -0.713445,2.62091 -0.475532,0.641418 -1.119482,0.961949 -1.932316,0.961949 -0.823885,0 -1.473613,-0.318044 -1.949149,-0.953932 -0.470007,-0.641419 -0.705029,-1.517506 -0.705029,-2.628927 0,-1.111421 0.237509,-1.985022 0.713045,-2.620911 0.475536,-0.641419 1.122773,-0.962348 1.941133,-0.962348 z" />
    <path
       id="path8"
       style="font-size:2.82223px;line-height:1;font-family:FontAwesome;-inkscape-font-specification:FontAwesome;letter-spacing:-0.0668324px;word-spacing:0px;white-space:pre;fill:#333333;stroke:#f2f2f2;stroke-width:0.310248;stroke-linecap:square;stroke-dasharray:none;paint-order:fill markers stroke"
       d="m 28.297492,6.6303441 v 5.0261849 c -0.320711,-0.55293 -0.727146,-0.961858 -1.21927,-1.227287 -0.48659,-0.270929 -1.072711,-0.406424 -1.758362,-0.406424 -1.122484,0 -2.037392,0.447748 -2.745162,1.343523 -0.702246,0.895773 -1.053335,2.07338 -1.053335,3.533158 0,1.459779 0.351089,2.637786 1.053335,3.533559 0.515561,0.652512 1.140987,1.067321 1.876601,1.244522 h -0.06012 v 9.289623 h 1.534308 v -4.893516 c 0,-1.050598 0.229247,-1.855216 0.688194,-2.41369 0.464474,-0.564009 1.128235,-0.846115 1.990834,-0.846115 0.243293,0 0.464281,0.02478 0.663344,0.07455 0.2046,0.04422 0.392928,0.116083 0.564344,0.215637 l -0.0085,-1.567977 V 6.6303441 Z m -2.604477,4.6694609 c 0.807306,0 1.443393,0.320936 1.907866,0.96235 0.464477,0.63589 0.696611,1.514861 0.696611,2.637344 0,1.122479 -0.232134,2.004743 -0.696611,2.646162 -0.464473,0.63589 -1.10056,0.953532 -1.907866,0.953532 -0.807302,0 -1.442991,-0.317642 -1.907464,-0.953532 -0.458948,-0.641419 -0.688595,-1.523683 -0.688595,-2.646162 0,-1.122483 0.229647,-2.001454 0.688595,-2.637344 0.464473,-0.641414 1.100162,-0.96235 1.907464,-0.96235 z m 2.604477,6.843066 v 1.365167 c -0.41829,0.06384 -0.791271,0.183884 -1.119467,0.36033 -0.514229,0.270942 -0.931815,0.688528 -1.252538,1.252536 v -1.381999 c 0.431946,-0.05659 0.816078,-0.176686 1.152735,-0.36033 0.492111,-0.270949 0.898547,-0.682758 1.21927,-1.235704 z" />
    <path
       id="text1"
       style="font-size:2.82223px;line-height:1;font-family:FontAwesome;-inkscape-font-specification:FontAwesome;letter-spacing:-0.0668324px;word-spacing:0px;white-space:pre;fill:#333333;stroke:#f2f2f2;stroke-width:0.310248;stroke-linecap:square;stroke-dasharray:none;paint-order:fill markers stroke"
       d="m 11.346091,7.1530031 v 1.4100577 h 7.639078 l -7.829864,9.6956442 v 1.277388 h 1.838926 c -0.20727,0.158232 -0.402761,0.332542 -0.586388,0.52266 -1.089303,1.128013 -1.633711,2.703797 -1.633711,4.727578 0,2.018259 0.544408,3.594041 1.633711,4.72758 1.094836,1.128012 2.609899,1.692228 4.545209,1.692228 0.884716,0 1.717005,-0.11606 2.496658,-0.348305 0.779655,-0.237768 1.492989,-0.586374 2.139936,-1.045318 V 24.496144 H 17.19354 v 1.376789 h 2.737145 v 3.325938 c -0.37047,0.215675 -0.788062,0.375926 -1.252537,0.480976 -0.464478,0.09955 -0.992359,0.149503 -1.58401,0.149503 -1.515076,0 -2.65426,-0.423362 -3.417324,-1.269373 -0.757539,-0.846006 -1.136302,-2.103746 -1.136302,-3.773646 0,-1.675429 0.378763,-2.936057 1.136302,-3.782063 0.763064,-0.846006 1.902248,-1.268971 3.417324,-1.268971 0.768597,0 1.501342,0.132577 2.198053,0.398006 0.696712,0.265414 1.354699,0.660705 1.974001,1.186004 V 19.536093 18.126036 H 13.24554 L 21.075405,8.4299904 V 7.1530031 Z" />
    <path
       style="font-size:2.82223px;line-height:1;-inkscape-font-specification:sans-serif;letter-spacing:-0.0668324px;word-spacing:0px;white-space:pre;fill:#333333;stroke:#f2f2f2;stroke-width:0.310248;stroke-linecap:square;stroke-dasharray:none;paint-order:fill markers stroke"
       d="M 57.245641,19.438649 Z"
       id="path16" />
  </g>
</svg>
