<?xml version="1.0" encoding="UTF-8" standalone="no"?>
<!-- Created with Inkscape (http://www.inkscape.org/) -->

<svg
   width="53.204048mm"
   height="9.7455654mm"
   viewBox="0 0 53.204049 9.7455654"
   version="1.1"
   id="svg1"
   inkscape:version="1.4.3 (1:1.4.3+202512261034+0d15f75042)"
   sodipodi:docname="zdouc_logo_v1.svg"
   inkscape:export-filename="zdouc_groupv1.png"
   inkscape:export-xdpi="300"
   inkscape:export-ydpi="300"
   xmlns:inkscape="http://www.inkscape.org/namespaces/inkscape"
   xmlns:sodipodi="http://sodipodi.sourceforge.net/DTD/sodipodi-0.dtd"
   xmlns="http://www.w3.org/2000/svg"
   xmlns:svg="http://www.w3.org/2000/svg">
  <sodipodi:namedview
     id="namedview1"
     pagecolor="#505050"
     bordercolor="#ffffff"
     borderopacity="1"
     inkscape:showpageshadow="0"
     inkscape:pageopacity="0"
     inkscape:pagecheckerboard="1"
     inkscape:deskcolor="#505050"
     inkscape:document-units="mm"
     inkscape:zoom="2.7940709"
     inkscape:cx="114.17033"
     inkscape:cy="19.147689"
     inkscape:window-width="1920"
     inkscape:window-height="1016"
     inkscape:window-x="0"
     inkscape:window-y="27"
     inkscape:window-maximized="1"
     inkscape:current-layer="layer1"
     showguides="true" />
  <defs
     id="defs1" />
  <g
     inkscape:label="Layer 1"
     inkscape:groupmode="layer"
     id="layer1"
     transform="translate(-8.4356939,-6.6115389)">
    <path
       style="font-size:11.6047px;line-height:1;font-family:Kalapi;-inkscape-font-specification:Kalapi;letter-spacing:-0.861729px;word-spacing:0px;white-space:pre;fill:#333333;stroke:#ffffff;stroke-width:0.196251;stroke-linecap:square;paint-order:fill markers stroke"
       d="m 55.361485,10.427532 q 0.328649,-0.5666357 0.827289,-0.8386208 0.504305,-0.2776515 1.201267,-0.2776515 1.155937,0 1.875565,0.9179503 0.725294,0.917949 0.725294,2.413868 0,1.495918 -0.725294,2.413868 -0.719628,0.91795 -1.875565,0.91795 -0.696962,0 -1.201267,-0.271985 -0.49864,-0.277652 -0.827289,-0.844287 v 0.951948 H 54.313209 V 6.9937195 h 1.048276 z m 3.54714,2.215546 q 0,-1.150271 -0.475974,-1.801902 -0.470307,-0.657297 -1.297596,-0.657297 -0.827288,0 -1.303262,0.657297 -0.470308,0.651631 -0.470308,1.801902 0,1.15027 0.470308,1.807568 0.475974,0.651631 1.303262,0.651631 0.827289,0 1.297596,-0.651631 0.475974,-0.657298 0.475974,-1.807568 z"
       id="path8" />
    <path
       style="font-size:11.6047px;line-height:1;font-family:Kalapi;-inkscape-font-specification:Kalapi;letter-spacing:-0.861729px;word-spacing:0px;white-space:pre;fill:#333333;stroke:#ffffff;stroke-width:0.196251;stroke-linecap:square;paint-order:fill markers stroke"
       d="m 53.067053,12.189769 v 3.620803 h -1.04261 v -0.963281 q -0.35698,0.577968 -0.889618,0.85562 -0.532637,0.271985 -1.303262,0.271985 -0.974613,0 -1.552582,-0.54397 -0.572302,-0.549637 -0.572302,-1.467587 0,-1.070941 0.713961,-1.614912 0.719627,-0.54397 2.141883,-0.54397 h 1.46192 v -0.101994 q 0,-0.719628 -0.475974,-1.110607 -0.470307,-0.396645 -1.325927,-0.396645 -0.543971,0 -1.059609,0.130327 -0.515639,0.130326 -0.991613,0.390978 V 9.7532355 q 0.572302,-0.2209879 1.110606,-0.3286487 0.538304,-0.1133271 1.048276,-0.1133271 1.376925,0 2.056888,0.7139613 0.679963,0.713961 0.679963,2.164548 z M 50.9875,12.620412 q -1.263598,0 -1.750905,0.288985 -0.487306,0.288984 -0.487306,0.985946 0,0.555303 0.362647,0.883952 0.368313,0.322982 0.997279,0.322982 0.866952,0 1.388257,-0.611967 0.526971,-0.617633 0.526971,-1.637577 v -0.232321 z"
       id="path7" />
    <path
       style="font-size:11.6047px;line-height:1;font-family:Kalapi;-inkscape-font-specification:Kalapi;letter-spacing:-0.861729px;word-spacing:0px;white-space:pre;fill:#333333;stroke:#ffffff;stroke-width:0.196251;stroke-linecap:square;paint-order:fill markers stroke"
       d="m 42.545071,7.3507 h 1.144604 v 7.496591 h 4.119442 v 0.963281 h -5.264046 z"
       id="path6" />
    <path
       style="font-size:11.6047px;line-height:1;font-family:Kalapi;-inkscape-font-specification:Kalapi;letter-spacing:-0.861729px;word-spacing:0px;white-space:pre;fill:#333333;stroke:#ffffff;stroke-width:0.196251;stroke-linecap:square;paint-order:fill markers stroke"
       d="m 41.548235,9.7079047 v 0.9746133 q -0.441976,-0.243653 -0.889618,-0.362647 -0.441976,-0.12466 -0.895285,-0.12466 -1.014278,0 -1.575247,0.645965 -0.56097,0.640299 -0.56097,1.801902 0,1.161603 0.56097,1.807568 0.560969,0.640298 1.575247,0.640298 0.453309,0 0.895285,-0.118993 0.447642,-0.12466 0.889618,-0.368313 v 0.96328 q -0.43631,0.203989 -0.906617,0.305984 -0.464642,0.101994 -0.991613,0.101994 -1.433588,0 -2.277876,-0.900951 -0.844287,-0.900951 -0.844287,-2.430867 0,-1.552582 0.849954,-2.4422 0.85562,-0.8896183 2.340205,-0.8896183 0.481641,0 0.940616,0.1019944 0.458975,0.096328 0.889618,0.2946506 z"
       id="path5" />
    <path
       style="font-size:11.6047px;line-height:1;font-family:Kalapi;-inkscape-font-specification:Kalapi;letter-spacing:-0.861729px;word-spacing:0px;white-space:pre;fill:#333333;stroke:#ffffff;stroke-width:0.196251;stroke-linecap:square;paint-order:fill markers stroke"
       d="M 33.003809,9.3112597 Z"
       id="path4" />
    <path
       style="font-size:11.6047px;line-height:1;font-family:Kalapi;-inkscape-font-specification:Kalapi;letter-spacing:-0.861729px;word-spacing:0px;white-space:pre;fill:#333333;stroke:#ffffff;stroke-width:0.196251;stroke-linecap:square;paint-order:fill markers stroke"
       d="M 30.380286,13.306042 V 9.4642513 h 1.04261 v 3.8021257 q 0,0.900951 0.351314,1.35426 0.351314,0.447642 1.053942,0.447642 0.844287,0 1.331594,-0.538304 0.492973,-0.538304 0.492973,-1.467587 V 9.4642513 h 1.04261 v 6.3463207 h -1.04261 v -0.974614 q -0.379646,0.577969 -0.883951,0.861287 -0.49864,0.277651 -1.161604,0.277651 -1.093607,0 -1.660242,-0.679963 -0.566636,-0.679963 -0.566636,-1.988891 z"
       id="path3" />
    <path
       style="font-size:11.6047px;line-height:1;font-family:Kalapi;-inkscape-font-specification:Kalapi;letter-spacing:-0.861729px;word-spacing:0px;white-space:pre;fill:#333333;stroke:#ffffff;stroke-width:0.196251;stroke-linecap:square;paint-order:fill markers stroke"
       d="m 26.708929,9.3112597 q 1.359926,0 2.136217,0.8839513 0.776291,0.883952 0.776291,2.447867 0,1.558248 -0.776291,2.447866 -0.776291,0.883952 -2.136217,0.883952 -1.365592,0 -2.141883,-0.883952 -0.770624,-0.889618 -0.770624,-2.447866 0,-1.563915 0.770624,-2.447867 0.776291,-0.8839513 2.141883,-0.8839513 z m 0,0.8839513 q -0.838621,0 -1.325927,0.657298 -0.487307,0.651631 -0.487307,1.790569 0,1.138938 0.48164,1.796235 0.487307,0.651631 1.331594,0.651631 0.832955,0 1.320262,-0.657297 0.487306,-0.657298 0.487306,-1.790569 0,-1.127605 -0.487306,-1.784903 -0.487307,-0.662964 -1.320262,-0.662964 z"
       id="path2" />
    <path
       style="font-size:11.6047px;line-height:1;font-family:Kalapi;-inkscape-font-specification:Kalapi;letter-spacing:-0.861729px;word-spacing:0px;white-space:pre;fill:#333333;stroke:#ffffff;stroke-width:0.196251;stroke-linecap:square;paint-order:fill markers stroke"
       d="M 21.921299,10.427532 V 6.9937195 h 1.04261 v 8.8168525 h -1.04261 v -0.951948 q -0.328648,0.566635 -0.832954,0.844287 -0.49864,0.271985 -1.201268,0.271985 -1.15027,0 -1.875564,-0.91795 -0.719628,-0.91795 -0.719628,-2.413868 0,-1.495919 0.719628,-2.413868 0.725294,-0.9179503 1.875564,-0.9179503 0.702628,0 1.201268,0.2776515 0.504306,0.2719851 0.832954,0.8386208 z m -3.552806,2.215546 q 0,1.15027 0.470308,1.807568 0.475974,0.651631 1.303262,0.651631 0.827288,0 1.303262,-0.651631 0.475974,-0.657298 0.475974,-1.807568 0,-1.150271 -0.475974,-1.801902 -0.475974,-0.657297 -1.303262,-0.657297 -0.827288,0 -1.303262,0.657297 -0.470308,0.651631 -0.470308,1.801902 z"
       id="path1" />
    <path
       style="font-size:11.6047px;line-height:1;font-family:Kalapi;-inkscape-font-specification:Kalapi;letter-spacing:-0.861729px;word-spacing:0px;white-space:pre;fill:#333333;stroke:#ffffff;stroke-width:0.196251;stroke-linecap:square;paint-order:fill markers stroke"
       d="m 10.215048,7.3507 h 6.646637 v 0.872619 l -5.349042,6.623972 h 5.479368 v 0.963281 h -6.90729 v -0.872619 l 5.349042,-6.6239723 h -5.218715 z"
       id="text2" />
  </g>
</svg>
